<svg width="12" height="11" viewBox="0 0 12 11" fill="none" xmlns="http://www.w3.org/2000/svg">
<path d="M5.57034 10.7964C3.84134 10.7964 2.5459 10.6641 2.40314 10.6483C2.38726 10.6483 2.37141 10.643 2.35026 10.6377C2.2075 10.606 2.05943 10.5002 1.98542 10.3785C1.98014 10.3679 1.96955 10.3521 1.96426 10.3415C1.95898 10.3309 1.40908 9.10897 0.838024 7.36334C0.309273 5.70765 0.0343219 4.44339 0.00788431 4.30587C0.0025968 4.29 0.0025968 4.27413 0.0025968 4.25826C-0.0132658 4.11544 0.0448968 3.93557 0.140072 3.82978C0.14536 3.81921 0.155935 3.80863 0.16651 3.79804C0.177085 3.78747 1.16056 2.89349 2.65165 1.8091C4.05813 0.788174 5.17378 0.137534 5.30069 0.0634771C5.31654 0.0528976 5.33241 0.0476079 5.34298 0.042318C5.40645 0.0158693 5.48574 0 5.57034 0C5.65494 0 5.71841 0.0158693 5.74485 0.0264488C5.77657 0.0370283 5.80301 0.0476079 5.83473 0.0634771C5.95634 0.132244 7.06672 0.777594 8.48905 1.8091C9.90083 2.83531 10.8579 3.69755 10.9636 3.79275C10.9742 3.80334 10.9848 3.81391 10.9953 3.8245C11.0905 3.93029 11.1487 4.10485 11.1381 4.24767C11.1381 4.26354 11.1328 4.27941 11.1328 4.29528C11.1222 4.34818 10.8526 5.63359 10.2921 7.36334C9.75277 9.02961 9.22932 10.2039 9.17115 10.3309C9.16585 10.3468 9.15528 10.3573 9.15 10.3732C9.07597 10.4949 8.92792 10.606 8.79045 10.6377C8.77459 10.643 8.75872 10.643 8.73757 10.6483C8.60009 10.6641 7.32052 10.7964 5.57034 10.7964ZM2.6675 9.82308C3.0905 9.86011 4.18502 9.95003 5.57034 9.95003C6.95568 9.95003 8.05548 9.86011 8.4732 9.82308C8.63712 9.44222 9.06012 8.42129 9.4884 7.09885C9.91668 5.77641 10.1758 4.70259 10.2657 4.30057C9.95371 4.0255 9.11299 3.3061 7.99204 2.49147C6.87108 1.67685 5.9299 1.10027 5.57034 0.888679C5.2055 1.10556 4.2749 1.67685 3.14866 2.49147C2.01186 3.31668 1.18171 4.0255 0.875036 4.30057C0.970212 4.71317 1.22401 5.77641 1.6523 7.09885C2.0753 8.42129 2.50359 9.44222 2.6675 9.82308Z" fill="black"/>
</svg>
